<?xml version="1.0" standalone="no"?>
<!DOCTYPE svg PUBLIC "-//W3C//DTD SVG 20010904//EN"
 "http://www.w3.org/TR/2001/REC-SVG-20010904/DTD/svg10.dtd">
<svg version="1.0" xmlns="http://www.w3.org/2000/svg"
 width="256.000000pt" height="256.000000pt" viewBox="0 0 256.000000 256.000000"
 preserveAspectRatio="xMidYMid meet">
<metadata>
Created by potrace 1.16, written by Peter Selinger 2001-2019
</metadata>
<g transform="translate(0.000000,256.000000) scale(0.100000,-0.100000)"
fill="#000000" stroke="none">
<path d="M0 1280 l0 -1280 1280 0 1280 0 0 1280 0 1280 -1280 0 -1280 0 0
-1280z m1054 879 c73 -20 165 -130 166 -198 0 -34 38 -97 66 -110 43 -19 23
-41 -36 -41 -41 0 -95 51 -116 108 -32 88 -80 116 -148 88 -55 -23 -48 -46 14
-46 43 0 50 -3 50 -20 0 -11 -13 -33 -30 -48 -16 -16 -30 -35 -30 -43 0 -21
200 -207 246 -228 85 -40 126 -45 191 -23 47 16 81 20 179 19 l121 -2 56 -37
c31 -21 59 -38 62 -38 20 0 128 -86 136 -108 5 -15 16 -39 24 -54 8 -14 15
-43 15 -65 l-1 -38 -20 27 c-11 15 -37 36 -57 45 -20 9 -43 23 -51 31 -20 20
-36 0 -21 -28 7 -14 9 -40 5 -72 -7 -50 5 -115 47 -258 16 -55 18 -88 15 -215
-2 -82 -8 -165 -12 -184 -5 -24 -4 -36 6 -42 19 -11 1 -28 -36 -35 -16 -3 -32
-7 -36 -9 -14 -9 -31 24 -23 47 8 27 12 71 20 205 5 88 3 106 -15 140 -24 47
-148 183 -166 183 -23 0 -26 -18 -9 -57 18 -44 21 -121 5 -161 -5 -15 -14 -65
-19 -112 -12 -111 -39 -160 -88 -160 -42 0 -51 18 -31 57 26 50 50 196 42 258
-6 49 -14 65 -66 128 -75 88 -94 103 -114 87 -19 -16 -19 -58 0 -135 12 -49
13 -83 4 -190 -24 -289 -22 -276 -50 -298 -32 -23 -60 -17 -78 17 -9 17 -10
29 -3 43 33 61 47 325 20 377 -7 14 -36 49 -63 77 -37 38 -54 49 -74 47 -22
-3 -26 -9 -29 -43 -2 -21 4 -66 13 -98 9 -32 14 -65 11 -73 -3 -8 -10 -54 -16
-102 -12 -99 -27 -151 -49 -170 -8 -6 -34 -12 -58 -12 -36 0 -43 3 -43 19 0
11 4 22 9 25 21 13 51 146 51 227 0 72 -3 86 -25 114 -36 48 -111 199 -134
269 -11 33 -25 93 -31 131 -21 124 -45 150 -52 55 -3 -44 -4 -45 -40 -48 -34
-3 -39 0 -57 35 -44 84 -53 108 -57 162 -6 89 -20 194 -29 214 -4 9 -3 17 1
17 13 0 10 158 -3 171 -15 15 -51 2 -58 -21 -9 -29 -44 -69 -75 -85 -23 -12
-34 -13 -55 -3 -31 14 -32 36 -1 48 29 11 65 55 72 89 12 58 32 86 76 109 69
34 93 30 151 -28 59 -60 84 -63 114 -16 52 81 127 110 217 85z"/>
</g>
</svg>
